<?xml version="1.0" standalone="no"?><!DOCTYPE svg PUBLIC "-//W3C//DTD SVG 1.1//EN" "http://www.w3.org/Graphics/SVG/1.1/DTD/svg11.dtd"><svg t="1730554312057" class="icon" viewBox="0 0 1024 1024" version="1.1" xmlns="http://www.w3.org/2000/svg" p-id="2854" xmlns:xlink="http://www.w3.org/1999/xlink" width="200" height="200"><path d="M1002.213977 1023.638085c-7.44817-17.379063-12.899923-30.790888-18.786793-44.049142-86.204249-193.933965-172.664448-387.765549-258.254415-581.98106-4.069619-9.265421-22.933197-23.573074-0.20476-32.582544 20.93678-8.292808 19.196314 13.693371 23.675454 23.470694 27.489122 59.79012 53.391349 120.271308 80.214999 180.419759 62.55439 140.389045 125.339135 280.701305 190.453033 426.362938 2.533913-9.546967 4.095214-12.771948 4.095213-16.124904 0.05119-240.952137-0.563092-481.878679 0.460712-722.830816 0.10238-26.618889-9.214231-30.406962-32.531354-30.176606-125.211159 1.074994-250.396724 0.767853-375.607883 0.511902-86.818531-0.230356-86.997696-0.537497-87.048887 87.560788-0.10238 224.801638-0.179166 449.577681 0.486307 674.404914 0.05119 13.155874-10.980292 35.116458 18.12132 35.116458 150.217558-0.10238 300.486307-0.10238 454.927054-0.102381zM476.593297 349.770668A34701.714871 34701.714871 0 0 1 22.587666 235.949322c-20.757615-5.374968-22.34451 1.40773-22.34451 18.300486 0.307141 242.974149 0.204761 485.922703 0.20476 738.034297 7.960072-14.384438 11.850525-20.859995 15.280267-27.642692 90.760174-180.061428 181.289992-360.353212 272.920399-540.056309 4.888661-9.623752 4.069619-35.807525 27.105196-22.830817 22.062964 12.413617 0.383926 25.569491-4.607116 35.83312C246.902997 569.350909 181.584338 700.551318 116.47044 831.854108c-30.790888 62.093678-61.760942 124.161761-92.628615 186.101868 5.758894 3.148196 7.883286 5.323778 10.033273 5.323778 146.813412 0.281546 293.652419-0.10238 440.440236 0.716663 21.090351 0.179166 27.463527-5.93806 27.361147-27.386742-0.691067-204.760686-0.588687-409.495777 0.10238-614.230868 0.076785-19.47786-5.221397-27.719478-25.185564-32.608139zM25.966217 207.845918a51193.754799 51193.754799 0 0 1 449.808037 110.391604c18.428462 4.58152 26.311748 3.762478 26.004607-19.145124-1.305349-90.043512-1.45892-180.189404 0-270.25851C502.162787 4.748912 493.997955-0.24213 471.807016 0.141797c-73.969798 1.254159-147.939596 0.460712-221.883799 0.460711V0.423343C175.953419 0.423343 101.958027 1.088815 28.039419 0.013821 7.51216-0.29332-0.601482 4.441771 0.06399 26.555925 1.599695 76.261582 1.548505 126.095214 0.038395 175.826465c-0.588687 20.399283 6.680317 27.361147 25.927822 32.019453zM528.320965 168.122345c-0.742257 21.243921 5.323778 27.361147 26.670079 27.02841 73.918608-1.254159 147.837215-0.511902 221.781418-0.460711 73.944203 0 147.86281-0.511902 221.755823 0.307141 18.198106 0.230356 25.953417-3.1226 25.211159-23.957001-1.714871-48.323522-1.100589-96.749424-0.230355-145.124136 0.307141-17.86537-2.91784-25.927822-24.084976-25.799846-147.888405 0.998208-295.751216 0.844638-443.614026 0.076785-20.527259-0.127975-28.359355 4.811876-27.591503 26.798055 1.663681 47.018173 1.689276 94.11313 0.102381 141.131303z" fill="#231F20" p-id="2855"></path></svg>